<?xml version="1.0" standalone="no"?>
<!DOCTYPE svg PUBLIC "-//W3C//DTD SVG 20010904//EN"
 "http://www.w3.org/TR/2001/REC-SVG-20010904/DTD/svg10.dtd">
<svg version="1.0" xmlns="http://www.w3.org/2000/svg"
 width="300.000000pt" height="300.000000pt" viewBox="0 0 300.000000 300.000000"
 preserveAspectRatio="xMidYMid meet">
<metadata>
Created by potrace 1.11, written by Peter Selinger 2001-2013
</metadata>
<g transform="translate(0.000000,300.000000) scale(0.100000,-0.100000)"
fill="#000000" stroke="none">
<path d="M0 1500 l0 -1500 1500 0 1500 0 0 1500 0 1500 -1500 0 -1500 0 0
-1500z m825 480 c41 -20 42 -46 10 -195 -45 -210 -129 -464 -204 -613 -66
-132 -123 -182 -204 -182 -45 0 -76 26 -112 92 -59 108 -27 273 65 334 60 40
75 31 75 -41 -1 -33 -4 -98 -9 -145 -10 -118 5 -89 49 90 38 157 71 342 81
450 l7 68 -69 -19 c-83 -23 -132 -24 -162 -3 -27 19 -28 43 -3 92 42 82 73 92
281 89 124 -1 173 -6 195 -17z m1206 -37 c17 -17 -16 -68 -68 -106 -32 -22
-57 -32 -97 -35 -50 -4 -56 -7 -65 -35 -6 -16 -11 -31 -11 -32 0 -1 35 0 78 3
93 5 142 -12 172 -60 18 -28 21 -44 16 -100 -7 -91 -59 -191 -143 -275 -84
-85 -149 -116 -225 -111 -101 7 -152 66 -151 172 1 94 47 168 130 210 34 17
98 22 107 7 3 -4 -10 -39 -30 -77 -26 -52 -36 -86 -41 -140 -7 -85 5 -100 46
-60 46 44 85 132 89 202 4 57 2 65 -23 90 -24 24 -31 26 -73 19 -130 -22 -145
-10 -118 92 24 93 74 220 93 239 13 13 39 15 159 12 93 -2 147 -7 155 -15z
m529 1 c92 -32 125 -90 125 -219 -1 -203 -131 -453 -269 -516 -99 -45 -217
-13 -271 75 -26 43 -30 59 -33 145 -6 145 32 270 114 383 40 54 121 119 169
136 44 15 114 14 165 -4z m-1195 -199 c0 -15 -9 -21 -36 -26 -114 -18 -199
-142 -199 -289 0 -71 30 -123 74 -128 36 -4 61 18 82 74 28 73 6 162 -55 227
l-26 29 28 23 c28 25 84 45 125 45 39 0 76 -26 102 -72 20 -35 25 -57 25 -113
-1 -138 -56 -230 -173 -287 -61 -30 -75 -33 -157 -33 -139 0 -219 46 -245 142
-34 119 58 304 188 380 71 42 112 53 192 50 67 -2 75 -4 75 -22z"/>
<path d="M2416 1828 c-33 -50 -68 -141 -83 -213 -19 -94 -11 -165 25 -237 36
-72 58 -71 94 2 63 126 76 332 27 420 -29 52 -43 59 -63 28z"/>
</g>
</svg>
